<?xml version="1.0" encoding="utf-8"?>
<!-- Generator: Adobe Illustrator 24.3.0, SVG Export Plug-In . SVG Version: 6.00 Build 0)  -->
<svg version="1.1" id="Слой_1" xmlns="http://www.w3.org/2000/svg" xmlns:xlink="http://www.w3.org/1999/xlink" x="0px" y="0px"
	 viewBox="0 0 3000 2000" style="enable-background:new 0 0 3000 2000;" xml:space="preserve">
<style type="text/css">
	.st0{display:none;fill:none;}
	.st1{fill:#BDDEFF;}
	.st2{fill:#FFFFFF;}
	.st3{fill:#F1F2F3;}
</style>
<path class="st0" d="z"/>
<g transform="">
	<g transform="matrix(1,0,0,1,1174.9749755859375,446.0088195800781)">
		<path class="st1" d="M94.7,37.5c0.9-2.8,1.3-5.7,1.3-8.7C96,13,83,0,67.1,0c-11,0-20.6,6.2-25.5,15.3c-1.8-0.6-3.8-0.9-5.7-0.9
			c-10.6,0-19.1,8.5-19.1,19.1c0,1.3,0.1,2.7,0.4,3.8C7.5,38.9,0,47.4,0,57.6C0,68.9,9.1,78,20.5,78h70.8c11.3,0,20.5-9.1,20.5-20.5
			C111.6,47.6,104.2,39.2,94.7,37.5z"/>
	</g>
	<g transform="matrix(1,0,0,1,1630.9610595703125,700.0977783203125)">
		<path class="st1" d="M94.7,37.5c0.9-2.8,1.3-5.7,1.3-8.7C96,13,83,0,67.1,0c-11,0-20.6,6.2-25.5,15.3c-1.8-0.6-3.8-0.9-5.7-0.9
			c-10.6,0-19.1,8.5-19.1,19.1c0,1.3,0.1,2.7,0.4,3.8C7.5,38.9,0,47.4,0,57.6C0,68.9,9.1,78,20.5,78h70.8c11.3,0,20.5-9.1,20.5-20.5
			C111.6,47.6,104.2,39.2,94.7,37.5z"/>
	</g>
	<g transform="matrix(1,0,0,1,965.177490234375,1787.3583984375)">
		<path class="st1" d="M94.7,37.5c0.9-2.8,1.3-5.7,1.3-8.7C96,13,83,0,67.1,0c-11,0-20.6,6.2-25.5,15.3c-1.8-0.6-3.8-0.9-5.7-0.9
			c-10.6,0-19.1,8.5-19.1,19.1c0,1.3,0.1,2.7,0.4,3.8C7.5,38.9,0,47.4,0,57.6C0,68.9,9.1,78,20.5,78h70.8c11.3,0,20.5-9.1,20.5-20.5
			C111.6,47.6,104.2,39.2,94.7,37.5z"/>
	</g>
	<g transform="matrix(1,0,0,1,1902.772705078125,1894.186279296875)">
		<path class="st1" d="M94.7,37.5c0.9-2.8,1.3-5.7,1.3-8.7C96,13,83,0,67.1,0c-11,0-20.6,6.2-25.5,15.3c-1.8-0.6-3.8-0.9-5.7-0.9
			c-10.6,0-19.1,8.5-19.1,19.1c0,1.3,0.1,2.7,0.4,3.8C7.5,38.9,0,47.4,0,57.6C0,68.9,9.1,78,20.5,78h70.8c11.3,0,20.5-9.1,20.5-20.5
			C111.6,47.6,104.2,39.2,94.7,37.5z"/>
	</g>
	<g transform="matrix(1,0,0,1,2293.905029296875,637.7026977539062)">
		<path class="st1" d="M94.7,37.5c0.9-2.8,1.3-5.7,1.3-8.7C96,13,83,0,67.1,0c-11,0-20.6,6.2-25.5,15.3c-1.8-0.6-3.8-0.9-5.7-0.9
			c-10.6,0-19.1,8.5-19.1,19.1c0,1.3,0.1,2.7,0.4,3.8C7.5,38.9,0,47.4,0,57.6C0,68.9,9.1,78,20.5,78h70.8c11.3,0,20.5-9.1,20.5-20.5
			C111.6,47.6,104.2,39.2,94.7,37.5z"/>
	</g>
	<g transform="matrix(1,0,0,1,-66.82420349121094,759.1171264648438)">
		<path class="st1" d="M94.7,37.5c0.9-2.8,1.3-5.7,1.3-8.7C96,13,83,0,67.1,0c-11,0-20.6,6.2-25.5,15.3c-1.8-0.6-3.8-0.9-5.7-0.9
			c-10.6,0-19.1,8.5-19.1,19.1c0,1.3,0.1,2.7,0.4,3.8C7.5,38.9,0,47.4,0,57.6C0,68.9,9.1,78,20.5,78h70.8c11.3,0,20.5-9.1,20.5-20.5
			C111.6,47.6,104.2,39.2,94.7,37.5z"/>
	</g>
	<g transform="matrix(1,0,0,1,-41.84700393676758,1815.153564453125)">
		<path class="st1" d="M94.7,37.5c0.9-2.8,1.3-5.7,1.3-8.7C96,13,83,0,67.1,0c-11,0-20.6,6.2-25.5,15.3c-1.8-0.6-3.8-0.9-5.7-0.9
			c-10.6,0-19.1,8.5-19.1,19.1c0,1.3,0.1,2.7,0.4,3.8C7.5,38.9,0,47.4,0,57.6C0,68.9,9.1,78,20.5,78h70.8c11.3,0,20.5-9.1,20.5-20.5
			C111.6,47.6,104.2,39.2,94.7,37.5z"/>
	</g>
	<g transform="matrix(1,0,0,1,2993.27490234375,472.5588684082031)">
		<path class="st1" d="M94.7,37.5c0.9-2.8,1.3-5.7,1.3-8.7C96,13,83,0,67.1,0c-11,0-20.6,6.2-25.5,15.3c-1.8-0.6-3.8-0.9-5.7-0.9
			c-10.6,0-19.1,8.5-19.1,19.1c0,1.3,0.1,2.7,0.4,3.8C7.5,38.9,0,47.4,0,57.6C0,68.9,9.1,78,20.5,78h70.8c11.3,0,20.5-9.1,20.5-20.5
			C111.6,47.6,104.2,39.2,94.7,37.5z"/>
	</g>
	<g transform="matrix(1,0,0,1,1553.96142578125,1362.123046875)">
		<path class="st1" d="M94.7,37.5c0.9-2.8,1.3-5.7,1.3-8.7C96,13,83,0,67.1,0c-11,0-20.6,6.2-25.5,15.3c-1.8-0.6-3.8-0.9-5.7-0.9
			c-10.6,0-19.1,8.5-19.1,19.1c0,1.3,0.1,2.7,0.4,3.8C7.5,38.9,0,47.4,0,57.6C0,68.9,9.1,78,20.5,78h70.8c11.3,0,20.5-9.1,20.5-20.5
			C111.6,47.6,104.2,39.2,94.7,37.5z"/>
	</g>
	<g transform="matrix(1,0,0,1,980.239990234375,958.1809692382812)">
		<path class="st1" d="M94.7,37.5c0.9-2.8,1.3-5.7,1.3-8.7C96,13,83,0,67.1,0c-11,0-20.6,6.2-25.5,15.3c-1.8-0.6-3.8-0.9-5.7-0.9
			c-10.6,0-19.1,8.5-19.1,19.1c0,1.3,0.1,2.7,0.4,3.8C7.5,38.9,0,47.4,0,57.6C0,68.9,9.1,78,20.5,78h70.8c11.3,0,20.5-9.1,20.5-20.5
			C111.6,47.6,104.2,39.2,94.7,37.5z"/>
	</g>
	<g transform="matrix(1,0,0,1,2966.11572265625,1651.132080078125)">
		<path class="st1" d="M94.7,37.5c0.9-2.8,1.3-5.7,1.3-8.7C96,13,83,0,67.1,0c-11,0-20.6,6.2-25.5,15.3c-1.8-0.6-3.8-0.9-5.7-0.9
			c-10.6,0-19.1,8.5-19.1,19.1c0,1.3,0.1,2.7,0.4,3.8C7.5,38.9,0,47.4,0,57.6C0,68.9,9.1,78,20.5,78h70.8c11.3,0,20.5-9.1,20.5-20.5
			C111.6,47.6,104.2,39.2,94.7,37.5z"/>
	</g>
	<g transform="matrix(1,0,0,1,2915.27685546875,1080.68603515625)">
		<path class="st2" d="M105.5,41.8c1-3.1,1.5-6.4,1.5-9.7C106.9,14.4,92.5,0,74.8,0c-12.3,0-23,6.9-28.4,17.1c-2-0.7-4.3-1-6.4-1
			c-11.8,0-21.3,9.5-21.3,21.3c0,1.5,0.2,3,0.5,4.3C8.4,43.3,0,52.8,0,64.1c0,12.6,10.2,22.8,22.8,22.8h78.9
			c12.6,0,22.8-10.2,22.8-22.8C124.3,53,116.1,43.6,105.5,41.8z"/>
	</g>
	<g transform="matrix(1,0,0,1,1097.3387451171875,1002.5806274414062)">
		<path class="st2" d="M105.5,41.8c1-3.1,1.5-6.4,1.5-9.7C106.9,14.4,92.5,0,74.8,0c-12.3,0-23,6.9-28.4,17.1c-2-0.7-4.3-1-6.4-1
			c-11.8,0-21.3,9.5-21.3,21.3c0,1.5,0.2,3,0.5,4.3C8.4,43.3,0,52.8,0,64.1c0,12.6,10.2,22.8,22.8,22.8h78.9
			c12.6,0,22.8-10.2,22.8-22.8C124.3,53,116.1,43.6,105.5,41.8z"/>
	</g>
	<g transform="matrix(1,0,0,1,1811.164794921875,1222.1680908203125)">
		<path class="st2" d="M105.5,41.8c1-3.1,1.5-6.4,1.5-9.7C106.9,14.4,92.5,0,74.8,0c-12.3,0-23,6.9-28.4,17.1c-2-0.7-4.3-1-6.4-1
			c-11.8,0-21.3,9.5-21.3,21.3c0,1.5,0.2,3,0.5,4.3C8.4,43.3,0,52.8,0,64.1c0,12.6,10.2,22.8,22.8,22.8h78.9
			c12.6,0,22.8-10.2,22.8-22.8C124.3,53,116.1,43.6,105.5,41.8z"/>
	</g>
	<g transform="matrix(1,0,0,1,1521.5943603515625,1053.710693359375)">
		<path class="st2" d="M105.5,41.8c1-3.1,1.5-6.4,1.5-9.7C106.9,14.4,92.5,0,74.8,0c-12.3,0-23,6.9-28.4,17.1c-2-0.7-4.3-1-6.4-1
			c-11.8,0-21.3,9.5-21.3,21.3c0,1.5,0.2,3,0.5,4.3C8.4,43.3,0,52.8,0,64.1c0,12.6,10.2,22.8,22.8,22.8h78.9
			c12.6,0,22.8-10.2,22.8-22.8C124.3,53,116.1,43.6,105.5,41.8z"/>
	</g>
	<g transform="matrix(1,0,0,1,1088.554443359375,248.02882385253906)">
		<path class="st2" d="M105.5,41.8c1-3.1,1.5-6.4,1.5-9.7C106.9,14.4,92.5,0,74.8,0c-12.3,0-23,6.9-28.4,17.1c-2-0.7-4.3-1-6.4-1
			c-11.8,0-21.3,9.5-21.3,21.3c0,1.5,0.2,3,0.5,4.3C8.4,43.3,0,52.8,0,64.1c0,12.6,10.2,22.8,22.8,22.8h78.9
			c12.6,0,22.8-10.2,22.8-22.8C124.3,53,116.1,43.6,105.5,41.8z"/>
	</g>
	<g transform="matrix(1,0,0,1,236.33078002929688,31.120792388916016)">
		<path class="st2" d="M105.5,41.8c1-3.1,1.5-6.4,1.5-9.7C106.9,14.4,92.5,0,74.8,0c-12.3,0-23,6.9-28.4,17.1c-2-0.7-4.3-1-6.4-1
			c-11.8,0-21.3,9.5-21.3,21.3c0,1.5,0.2,3,0.5,4.3C8.4,43.3,0,52.8,0,64.1c0,12.6,10.2,22.8,22.8,22.8h78.9
			c12.6,0,22.8-10.2,22.8-22.8C124.3,53,116.1,43.6,105.5,41.8z"/>
	</g>
	<g transform="matrix(1,0,0,1,2657.664794921875,845.8740844726562)">
		<path class="st2" d="M105.5,41.8c1-3.1,1.5-6.4,1.5-9.7C106.9,14.4,92.5,0,74.8,0c-12.3,0-23,6.9-28.4,17.1c-2-0.7-4.3-1-6.4-1
			c-11.8,0-21.3,9.5-21.3,21.3c0,1.5,0.2,3,0.5,4.3C8.4,43.3,0,52.8,0,64.1c0,12.6,10.2,22.8,22.8,22.8h78.9
			c12.6,0,22.8-10.2,22.8-22.8C124.3,53,116.1,43.6,105.5,41.8z"/>
	</g>
	<g transform="matrix(1,0,0,1,834.921142578125,41.208221435546875)">
		<path class="st2" d="M105.5,41.8c1-3.1,1.5-6.4,1.5-9.7C106.9,14.4,92.5,0,74.8,0c-12.3,0-23,6.9-28.4,17.1c-2-0.7-4.3-1-6.4-1
			c-11.8,0-21.3,9.5-21.3,21.3c0,1.5,0.2,3,0.5,4.3C8.4,43.3,0,52.8,0,64.1c0,12.6,10.2,22.8,22.8,22.8h78.9
			c12.6,0,22.8-10.2,22.8-22.8C124.3,53,116.1,43.6,105.5,41.8z"/>
	</g>
	<g transform="matrix(1,0,0,1,1885.4119873046875,1722.48095703125)">
		<path class="st2" d="M105.5,41.8c1-3.1,1.5-6.4,1.5-9.7C106.9,14.4,92.5,0,74.8,0c-12.3,0-23,6.9-28.4,17.1c-2-0.7-4.3-1-6.4-1
			c-11.8,0-21.3,9.5-21.3,21.3c0,1.5,0.2,3,0.5,4.3C8.4,43.3,0,52.8,0,64.1c0,12.6,10.2,22.8,22.8,22.8h78.9
			c12.6,0,22.8-10.2,22.8-22.8C124.3,53,116.1,43.6,105.5,41.8z"/>
	</g>
	<g transform="matrix(1,0,0,1,2046.02001953125,994.7908325195312)">
		<path class="st2" d="M105.5,41.8c1-3.1,1.5-6.4,1.5-9.7C106.9,14.4,92.5,0,74.8,0c-12.3,0-23,6.9-28.4,17.1c-2-0.7-4.3-1-6.4-1
			c-11.8,0-21.3,9.5-21.3,21.3c0,1.5,0.2,3,0.5,4.3C8.4,43.3,0,52.8,0,64.1c0,12.6,10.2,22.8,22.8,22.8h78.9
			c12.6,0,22.8-10.2,22.8-22.8C124.3,53,116.1,43.6,105.5,41.8z"/>
	</g>
	<g transform="matrix(1,0,0,1,2227.64208984375,1390.024658203125)">
		<path class="st2" d="M105.5,41.8c1-3.1,1.5-6.4,1.5-9.7C106.9,14.4,92.5,0,74.8,0c-12.3,0-23,6.9-28.4,17.1c-2-0.7-4.3-1-6.4-1
			c-11.8,0-21.3,9.5-21.3,21.3c0,1.5,0.2,3,0.5,4.3C8.4,43.3,0,52.8,0,64.1c0,12.6,10.2,22.8,22.8,22.8h78.9
			c12.6,0,22.8-10.2,22.8-22.8C124.3,53,116.1,43.6,105.5,41.8z"/>
	</g>
	<g transform="matrix(1,0,0,1,1302.5260009765625,1810.7562255859375)">
		<path class="st3" d="M116.3,46.1c1.1-3.4,1.6-7.1,1.6-10.7C117.9,15.9,102,0,82.5,0C68.9,0,57.1,7.6,51.2,18.8
			c-2.2-0.7-4.7-1.1-7.1-1.1c-13,0-23.5,10.5-23.5,23.5c0,1.6,0.2,3.3,0.5,4.7C9.2,47.7,0,58.2,0,70.7c0,13.9,11.2,25.1,25.1,25.1
			h87c13.9,0,25.1-11.2,25.1-25.1C137.1,58.4,128,48.1,116.3,46.1z"/>
	</g>
	<g transform="matrix(1,0,0,1,130.27655029296875,155.518310546875)">
		<path class="st3" d="M116.3,46.1c1.1-3.4,1.6-7.1,1.6-10.7C117.9,15.9,102,0,82.5,0C68.9,0,57.1,7.6,51.2,18.8
			c-2.2-0.7-4.7-1.1-7.1-1.1c-13,0-23.5,10.5-23.5,23.5c0,1.6,0.2,3.3,0.5,4.7C9.2,47.7,0,58.2,0,70.7c0,13.9,11.2,25.1,25.1,25.1
			h87c13.9,0,25.1-11.2,25.1-25.1C137.1,58.4,128,48.1,116.3,46.1z"/>
	</g>
	<g transform="matrix(1,0,0,1,2049.291259765625,1088.5106201171875)">
		<path class="st3" d="M116.3,46.1c1.1-3.4,1.6-7.1,1.6-10.7C117.9,15.9,102,0,82.5,0C68.9,0,57.1,7.6,51.2,18.8
			c-2.2-0.7-4.7-1.1-7.1-1.1c-13,0-23.5,10.5-23.5,23.5c0,1.6,0.2,3.3,0.5,4.7C9.2,47.7,0,58.2,0,70.7c0,13.9,11.2,25.1,25.1,25.1
			h87c13.9,0,25.1-11.2,25.1-25.1C137.1,58.4,128,48.1,116.3,46.1z"/>
	</g>
	<g transform="matrix(1,0,0,1,1095.1007080078125,1246.4923095703125)">
		<path class="st3" d="M116.3,46.1c1.1-3.4,1.6-7.1,1.6-10.7C117.9,15.9,102,0,82.5,0C68.9,0,57.1,7.6,51.2,18.8
			c-2.2-0.7-4.7-1.1-7.1-1.1c-13,0-23.5,10.5-23.5,23.5c0,1.6,0.2,3.3,0.5,4.7C9.2,47.7,0,58.2,0,70.7c0,13.9,11.2,25.1,25.1,25.1
			h87c13.9,0,25.1-11.2,25.1-25.1C137.1,58.4,128,48.1,116.3,46.1z"/>
	</g>
	<g transform="matrix(1,0,0,1,628.5704345703125,837.1739501953125)">
		<path class="st3" d="M116.3,46.1c1.1-3.4,1.6-7.1,1.6-10.7C117.9,15.9,102,0,82.5,0C68.9,0,57.1,7.6,51.2,18.8
			c-2.2-0.7-4.7-1.1-7.1-1.1c-13,0-23.5,10.5-23.5,23.5c0,1.6,0.2,3.3,0.5,4.7C9.2,47.7,0,58.2,0,70.7c0,13.9,11.2,25.1,25.1,25.1
			h87c13.9,0,25.1-11.2,25.1-25.1C137.1,58.4,128,48.1,116.3,46.1z"/>
	</g>
	<g transform="matrix(1,0,0,1,445.97039794921875,727.4285888671875)">
		<path class="st3" d="M116.3,46.1c1.1-3.4,1.6-7.1,1.6-10.7C117.9,15.9,102,0,82.5,0C68.9,0,57.1,7.6,51.2,18.8
			c-2.2-0.7-4.7-1.1-7.1-1.1c-13,0-23.5,10.5-23.5,23.5c0,1.6,0.2,3.3,0.5,4.7C9.2,47.7,0,58.2,0,70.7c0,13.9,11.2,25.1,25.1,25.1
			h87c13.9,0,25.1-11.2,25.1-25.1C137.1,58.4,128,48.1,116.3,46.1z"/>
	</g>
	<g transform="matrix(1,0,0,1,2876.35546875,340.7208251953125)">
		<path class="st3" d="M116.3,46.1c1.1-3.4,1.6-7.1,1.6-10.7C117.9,15.9,102,0,82.5,0C68.9,0,57.1,7.6,51.2,18.8
			c-2.2-0.7-4.7-1.1-7.1-1.1c-13,0-23.5,10.5-23.5,23.5c0,1.6,0.2,3.3,0.5,4.7C9.2,47.7,0,58.2,0,70.7c0,13.9,11.2,25.1,25.1,25.1
			h87c13.9,0,25.1-11.2,25.1-25.1C137.1,58.4,128,48.1,116.3,46.1z"/>
	</g>
	<g transform="matrix(1,0,0,1,1990.83837890625,1063.6373291015625)">
		<path class="st3" d="M116.3,46.1c1.1-3.4,1.6-7.1,1.6-10.7C117.9,15.9,102,0,82.5,0C68.9,0,57.1,7.6,51.2,18.8
			c-2.2-0.7-4.7-1.1-7.1-1.1c-13,0-23.5,10.5-23.5,23.5c0,1.6,0.2,3.3,0.5,4.7C9.2,47.7,0,58.2,0,70.7c0,13.9,11.2,25.1,25.1,25.1
			h87c13.9,0,25.1-11.2,25.1-25.1C137.1,58.4,128,48.1,116.3,46.1z"/>
	</g>
	<g transform="matrix(1,0,0,1,2485.529541015625,1241.770263671875)">
		<path class="st3" d="M116.3,46.1c1.1-3.4,1.6-7.1,1.6-10.7C117.9,15.9,102,0,82.5,0C68.9,0,57.1,7.6,51.2,18.8
			c-2.2-0.7-4.7-1.1-7.1-1.1c-13,0-23.5,10.5-23.5,23.5c0,1.6,0.2,3.3,0.5,4.7C9.2,47.7,0,58.2,0,70.7c0,13.9,11.2,25.1,25.1,25.1
			h87c13.9,0,25.1-11.2,25.1-25.1C137.1,58.4,128,48.1,116.3,46.1z"/>
	</g>
	<g transform="matrix(1,0,0,1,-29.560447692871094,379.8896789550781)">
		<path class="st3" d="M116.3,46.1c1.1-3.4,1.6-7.1,1.6-10.7C117.9,15.9,102,0,82.5,0C68.9,0,57.1,7.6,51.2,18.8
			c-2.2-0.7-4.7-1.1-7.1-1.1c-13,0-23.5,10.5-23.5,23.5c0,1.6,0.2,3.3,0.5,4.7C9.2,47.7,0,58.2,0,70.7c0,13.9,11.2,25.1,25.1,25.1
			h87c13.9,0,25.1-11.2,25.1-25.1C137.1,58.4,128,48.1,116.3,46.1z"/>
	</g>
	<g transform="matrix(1,0,0,1,2413.688232421875,1426.2088623046875)">
		<path class="st3" d="M116.3,46.1c1.1-3.4,1.6-7.1,1.6-10.7C117.9,15.9,102,0,82.5,0C68.9,0,57.1,7.6,51.2,18.8
			c-2.2-0.7-4.7-1.1-7.1-1.1c-13,0-23.5,10.5-23.5,23.5c0,1.6,0.2,3.3,0.5,4.7C9.2,47.7,0,58.2,0,70.7c0,13.9,11.2,25.1,25.1,25.1
			h87c13.9,0,25.1-11.2,25.1-25.1C137.1,58.4,128,48.1,116.3,46.1z"/>
	</g>
	<g transform="matrix(1,0,0,1,275.7408447265625,661.665771484375)">
		<path class="st1" d="M127.1,50.4c1.2-3.8,1.8-7.7,1.8-11.7C128.9,17.4,111.5,0,90.1,0C75.3,0,62.5,8.3,55.9,20.6
			c-2.4-0.8-5.1-1.2-7.7-1.2c-14.2,0-25.7,11.5-25.7,25.7c0,1.8,0.2,3.6,0.6,5.1C10.1,52.2,0,63.6,0,77.3
			c0,15.2,12.3,27.5,27.5,27.5h95.1c15.2,0,27.5-12.3,27.5-27.5C149.8,63.8,139.9,52.6,127.1,50.4z"/>
	</g>
	<g transform="matrix(1,0,0,1,384.6246643066406,3.25675368309021)">
		<path class="st1" d="M127.1,50.4c1.2-3.8,1.8-7.7,1.8-11.7C128.9,17.4,111.5,0,90.1,0C75.3,0,62.5,8.3,55.9,20.6
			c-2.4-0.8-5.1-1.2-7.7-1.2c-14.2,0-25.7,11.5-25.7,25.7c0,1.8,0.2,3.6,0.6,5.1C10.1,52.2,0,63.6,0,77.3
			c0,15.2,12.3,27.5,27.5,27.5h95.1c15.2,0,27.5-12.3,27.5-27.5C149.8,63.8,139.9,52.6,127.1,50.4z"/>
	</g>
	<g transform="matrix(1,0,0,1,2063.64453125,1928.556640625)">
		<path class="st1" d="M127.1,50.4c1.2-3.8,1.8-7.7,1.8-11.7C128.9,17.4,111.5,0,90.1,0C75.3,0,62.5,8.3,55.9,20.6
			c-2.4-0.8-5.1-1.2-7.7-1.2c-14.2,0-25.7,11.5-25.7,25.7c0,1.8,0.2,3.6,0.6,5.1C10.1,52.2,0,63.6,0,77.3
			c0,15.2,12.3,27.5,27.5,27.5h95.1c15.2,0,27.5-12.3,27.5-27.5C149.8,63.8,139.9,52.6,127.1,50.4z"/>
	</g>
	<g transform="matrix(1,0,0,1,1840.376220703125,731.6466674804688)">
		<path class="st1" d="M127.1,50.4c1.2-3.8,1.8-7.7,1.8-11.7C128.9,17.4,111.5,0,90.1,0C75.3,0,62.5,8.3,55.9,20.6
			c-2.4-0.8-5.1-1.2-7.7-1.2c-14.2,0-25.7,11.5-25.7,25.7c0,1.8,0.2,3.6,0.6,5.1C10.1,52.2,0,63.6,0,77.3
			c0,15.2,12.3,27.5,27.5,27.5h95.1c15.2,0,27.5-12.3,27.5-27.5C149.8,63.8,139.9,52.6,127.1,50.4z"/>
	</g>
	<g transform="matrix(1,0,0,1,644.2252807617188,1637.104736328125)">
		<path class="st1" d="M127.1,50.4c1.2-3.8,1.8-7.7,1.8-11.7C128.9,17.4,111.5,0,90.1,0C75.3,0,62.5,8.3,55.9,20.6
			c-2.4-0.8-5.1-1.2-7.7-1.2c-14.2,0-25.7,11.5-25.7,25.7c0,1.8,0.2,3.6,0.6,5.1C10.1,52.2,0,63.6,0,77.3
			c0,15.2,12.3,27.5,27.5,27.5h95.1c15.2,0,27.5-12.3,27.5-27.5C149.8,63.8,139.9,52.6,127.1,50.4z"/>
	</g>
	<g transform="matrix(1,0,0,1,2882.835693359375,864.356201171875)">
		<path class="st1" d="M127.1,50.4c1.2-3.8,1.8-7.7,1.8-11.7C128.9,17.4,111.5,0,90.1,0C75.3,0,62.5,8.3,55.9,20.6
			c-2.4-0.8-5.1-1.2-7.7-1.2c-14.2,0-25.7,11.5-25.7,25.7c0,1.8,0.2,3.6,0.6,5.1C10.1,52.2,0,63.6,0,77.3
			c0,15.2,12.3,27.5,27.5,27.5h95.1c15.2,0,27.5-12.3,27.5-27.5C149.8,63.8,139.9,52.6,127.1,50.4z"/>
	</g>
	<g transform="matrix(1,0,0,1,591.4866333007812,1199.13818359375)">
		<path class="st1" d="M127.1,50.4c1.2-3.8,1.8-7.7,1.8-11.7C128.9,17.4,111.5,0,90.1,0C75.3,0,62.5,8.3,55.9,20.6
			c-2.4-0.8-5.1-1.2-7.7-1.2c-14.2,0-25.7,11.5-25.7,25.7c0,1.8,0.2,3.6,0.6,5.1C10.1,52.2,0,63.6,0,77.3
			c0,15.2,12.3,27.5,27.5,27.5h95.1c15.2,0,27.5-12.3,27.5-27.5C149.8,63.8,139.9,52.6,127.1,50.4z"/>
	</g>
	<g transform="matrix(1,0,0,1,2893.8173828125,598.3440551757812)">
		<path class="st1" d="M127.1,50.4c1.2-3.8,1.8-7.7,1.8-11.7C128.9,17.4,111.5,0,90.1,0C75.3,0,62.5,8.3,55.9,20.6
			c-2.4-0.8-5.1-1.2-7.7-1.2c-14.2,0-25.7,11.5-25.7,25.7c0,1.8,0.2,3.6,0.6,5.1C10.1,52.2,0,63.6,0,77.3
			c0,15.2,12.3,27.5,27.5,27.5h95.1c15.2,0,27.5-12.3,27.5-27.5C149.8,63.8,139.9,52.6,127.1,50.4z"/>
	</g>
	<g transform="matrix(1,0,0,1,978.553955078125,1706.1895751953125)">
		<path class="st1" d="M127.1,50.4c1.2-3.8,1.8-7.7,1.8-11.7C128.9,17.4,111.5,0,90.1,0C75.3,0,62.5,8.3,55.9,20.6
			c-2.4-0.8-5.1-1.2-7.7-1.2c-14.2,0-25.7,11.5-25.7,25.7c0,1.8,0.2,3.6,0.6,5.1C10.1,52.2,0,63.6,0,77.3
			c0,15.2,12.3,27.5,27.5,27.5h95.1c15.2,0,27.5-12.3,27.5-27.5C149.8,63.8,139.9,52.6,127.1,50.4z"/>
	</g>
	<g transform="matrix(1,0,0,1,342.6495361328125,590.3121337890625)">
		<path class="st1" d="M127.1,50.4c1.2-3.8,1.8-7.7,1.8-11.7C128.9,17.4,111.5,0,90.1,0C75.3,0,62.5,8.3,55.9,20.6
			c-2.4-0.8-5.1-1.2-7.7-1.2c-14.2,0-25.7,11.5-25.7,25.7c0,1.8,0.2,3.6,0.6,5.1C10.1,52.2,0,63.6,0,77.3
			c0,15.2,12.3,27.5,27.5,27.5h95.1c15.2,0,27.5-12.3,27.5-27.5C149.8,63.8,139.9,52.6,127.1,50.4z"/>
	</g>
	<g transform="matrix(1,0,0,1,1808.7252197265625,1304.6837158203125)">
		<path class="st1" d="M127.1,50.4c1.2-3.8,1.8-7.7,1.8-11.7C128.9,17.4,111.5,0,90.1,0C75.3,0,62.5,8.3,55.9,20.6
			c-2.4-0.8-5.1-1.2-7.7-1.2c-14.2,0-25.7,11.5-25.7,25.7c0,1.8,0.2,3.6,0.6,5.1C10.1,52.2,0,63.6,0,77.3
			c0,15.2,12.3,27.5,27.5,27.5h95.1c15.2,0,27.5-12.3,27.5-27.5C149.8,63.8,139.9,52.6,127.1,50.4z"/>
	</g>
	<g transform="matrix(1,0,0,1,2165.07666015625,375.0314636230469)">
		<path class="st1" d="M127.1,50.4c1.2-3.8,1.8-7.7,1.8-11.7C128.9,17.4,111.5,0,90.1,0C75.3,0,62.5,8.3,55.9,20.6
			c-2.4-0.8-5.1-1.2-7.7-1.2c-14.2,0-25.7,11.5-25.7,25.7c0,1.8,0.2,3.6,0.6,5.1C10.1,52.2,0,63.6,0,77.3
			c0,15.2,12.3,27.5,27.5,27.5h95.1c15.2,0,27.5-12.3,27.5-27.5C149.8,63.8,139.9,52.6,127.1,50.4z"/>
	</g>
</g>
<path class="st0" d="z"/>
</svg>
